<svg width="37" height="20" viewBox="0 0 37 20" fill="none" xmlns="http://www.w3.org/2000/svg">
    <g clip-path="url(#clip0_4014_11693)">
        <path d="M36.2 18C36.2 8.05887 28.1411 0 18.2 0C8.25889 0 0.200012 8.05887 0.200012 18C0.200012 27.9411 8.25889 36 18.2 36C28.1411 36 36.2 27.9411 36.2 18Z" fill="#F65648" />
        <path d="M13.6444 15.4856C13.7156 15.4227 13.7512 15.3913 13.7568 15.3606C13.7617 15.3339 13.7543 15.3064 13.7365 15.2858C13.7161 15.2621 13.6703 15.2532 13.5786 15.2353C12.5093 15.0272 11.4023 14.9051 10.4312 14.895C10.3846 14.8945 10.3614 14.8943 10.3433 14.8855C10.3272 14.8778 10.3141 14.8657 10.305 14.8504C10.2947 14.8331 10.2925 14.8102 10.288 14.7643L9.92796 11.0618C9.92346 11.0159 9.92125 10.9929 9.92812 10.9739C9.93418 10.9571 9.94514 10.9424 9.95946 10.9319C9.97582 10.9199 9.99841 10.9155 10.0437 10.9068C15.468 9.85729 20.867 9.80345 26.3725 10.9088C26.4176 10.9178 26.4402 10.9223 26.4564 10.9344C26.4706 10.9451 26.4815 10.9597 26.4875 10.9765C26.4942 10.9955 26.4919 11.0185 26.4873 11.0642L26.1137 14.7647C26.1091 14.8106 26.1068 14.8334 26.0965 14.8507C26.0874 14.8659 26.0743 14.8779 26.0583 14.8856C26.0403 14.8943 26.017 14.8945 25.9705 14.895C24.9994 14.9051 23.8922 15.0271 22.8227 15.2353C22.731 15.2532 22.6851 15.2621 22.6648 15.2858C22.6471 15.3064 22.6396 15.3339 22.6445 15.3606C22.65 15.3913 22.6857 15.4227 22.757 15.4856C25.3338 17.7572 27.1562 20.7501 27.1971 24.9547C27.1976 25.0052 27.1978 25.0305 27.1881 25.0499C27.1796 25.0669 27.1656 25.081 27.1487 25.0897C27.1293 25.0996 27.1041 25.0996 27.0538 25.0996H23.3418C23.2913 25.0996 23.2661 25.0996 23.2471 25.09C23.23 25.0814 23.2165 25.0681 23.2078 25.0513C23.1979 25.0323 23.1975 25.0064 23.1968 24.9547C23.1486 21.4452 21.3463 19.1055 18.2791 17.1027C18.2508 17.0842 18.2367 17.075 18.2213 17.0713C18.2078 17.0682 18.1935 17.0682 18.18 17.0713C18.1647 17.075 18.1504 17.0842 18.1221 17.1027C15.055 19.1055 13.2526 21.4452 13.2045 24.9547C13.2038 25.0064 13.2035 25.0323 13.1935 25.0513C13.1847 25.0681 13.1712 25.0814 13.1543 25.09C13.1352 25.0996 13.11 25.0996 13.0595 25.0996H9.34754C9.29714 25.0996 9.27194 25.0996 9.25255 25.0897C9.2357 25.081 9.22171 25.0669 9.2132 25.0499C9.20346 25.0305 9.20371 25.0052 9.2042 24.9547C9.24511 20.7501 11.0676 17.7572 13.6444 15.4856Z" fill="white" />
    </g>
    <defs>
        <clipPath id="clip0_4014_11693">
            <rect width="36" height="36" fill="white" transform="translate(0.200012)" />
        </clipPath>
    </defs>
</svg>