<svg width="49" height="20" viewBox="0 0 49 20" fill="none" xmlns="http://www.w3.org/2000/svg">
    <path d="M1.07605 7.47712V10.0156L7.92396 9.26232V6.51482L1.07605 7.47712ZM3.26133 10.17V18.8685H5.76842V9.91376L3.26133 10.17ZM8.8488 6.38489V18.8685H11.4906V6.01346L8.8488 6.38489ZM11.9827 5.94423V8.81598L15.7974 8.39629V5.40826L11.9827 5.94423ZM11.9827 10.9534V13.8775L14.4868 13.7409V10.7379L11.9827 10.9534ZM11.9827 15.9852V18.8685H15.7974V15.8701L11.9827 15.9852ZM25.6627 4.01734V18.8685H29.1259V3.53058L25.6627 4.01734ZM29.7726 3.43958V6.85569L34.8195 6.30078V2.73013L29.7726 3.43958ZM29.7726 9.42484V12.9042L33.0806 12.7236V9.14157L29.7726 9.42484ZM29.7726 15.4474V18.8685H34.8195V15.295L29.7726 15.4474ZM16.8068 5.26615V18.8685H19.8161V4.84307L16.8068 5.26615ZM20.3777 15.7319V18.8684H24.7459V15.6001L20.3777 15.7319ZM46.1344 2.56219C45.0399 1.5281 43.435 1.10394 41.6797 1.35611V5.145C42.3905 5.10552 42.9665 5.36931 43.2232 5.90042C43.6284 6.73779 43.2103 7.99417 42.2241 9.1582C40.7019 10.9545 36.6541 14.6312 36.6541 14.6312L42.4649 14.4401C46.0154 10.9714 47.2905 8.86588 47.5192 6.23805C47.6394 4.8478 47.1348 3.50827 46.1344 2.56219ZM47.7239 18.8685V14.904L35.9378 15.2591M35.9378 15.2591L35.9391 18.8684H47.7239M41.0022 1.44116C37.5782 2.17035 35.8969 4.68934 36.0909 8.79962L39.7416 8.47566C39.5753 6.15354 40.2856 5.60269 41.0039 5.29982L41.0022 1.44116Z" fill="#141414" />
</svg>