<svg width="41" height="22" viewBox="0 0 41 22" fill="none" xmlns="http://www.w3.org/2000/svg">
    <rect x="0.399994" width="40" height="40" rx="4" fill="#C9EA44" />
    <path d="M33.8682 21.7989L32.6398 21.5702C32.6137 21.8593 32.539 22.1091 32.4166 22.2566C32.2941 22.404 32.072 22.4802 31.853 22.4802C31.6654 22.4854 31.4835 22.4162 31.3468 22.2877C31.2105 22.161 31.1425 21.9703 31.1427 21.7157V19.8386H33.4448V18.3219H31.1427V16.9434H29.4716V21.6884C29.4716 22.3636 29.6689 22.905 30.0633 23.3125C30.4577 23.7201 31.0452 23.9242 31.8257 23.925C32.4916 23.925 33.0629 23.741 33.4621 23.3726C33.6227 23.2241 33.7597 23.052 33.8682 22.8621C34.0395 22.5524 34.1494 22.2126 34.192 21.8612L33.8682 21.7989Z" fill="black" />
    <path d="M17.681 19.003C17.4075 18.5189 17.0071 18.1185 16.523 17.845C16.0408 17.5627 15.4793 17.4223 14.8384 17.4238C14.2071 17.4238 13.6457 17.5642 13.1542 17.845C12.6701 18.1185 12.2698 18.5189 11.9963 19.003C11.7157 19.4942 11.5754 20.0512 11.5751 20.6741C11.5749 21.2969 11.7147 21.8545 11.9947 22.3467C12.2687 22.8297 12.669 23.2289 13.1527 23.5016C13.6439 23.7839 14.2053 23.9251 14.8369 23.9251C15.4785 23.9251 16.04 23.7847 16.5215 23.5039C17.006 23.2308 17.4069 22.8307 17.681 22.3467C17.9618 21.8555 18.1021 21.2985 18.1021 20.6756C18.1021 20.0527 17.9618 19.4952 17.681 19.003ZM16.2451 21.6153C16.113 21.8774 15.9137 22.0997 15.6676 22.2597C15.416 22.4065 15.1299 22.4838 14.8386 22.4838C14.5473 22.4838 14.2613 22.4065 14.0096 22.2597C13.7636 22.0997 13.5643 21.8774 13.4322 21.6153C13.2915 21.3351 13.2213 21.0082 13.2216 20.6348C13.2219 20.2614 13.2921 19.9346 13.4322 19.6543C13.5591 19.3887 13.7595 19.1651 14.0096 19.0099C14.2613 18.8631 14.5473 18.7858 14.8386 18.7858C15.1299 18.7858 15.416 18.8631 15.6676 19.0099C15.9177 19.1651 16.1182 19.3887 16.2451 19.6543C16.3857 19.934 16.4559 20.2609 16.4557 20.6348C16.4554 21.0087 16.3852 21.3356 16.2451 21.6153Z" fill="black" />
    <path d="M27.0525 21.4228C26.964 21.7482 26.8016 22.0074 26.5655 22.2004C26.3294 22.3934 26.0049 22.4899 25.5919 22.4899C25.3209 22.49 25.0526 22.4364 24.8024 22.3321C24.5603 22.2209 24.3516 22.0484 24.1968 21.8316C24.0477 21.6032 23.9645 21.3225 23.947 20.9893H28.1974C28.2151 20.8666 28.2279 20.7438 28.2359 20.6209C28.2532 20.4901 28.2619 20.3583 28.262 20.2263C28.262 19.6474 28.1392 19.1517 27.8936 18.7392C27.6625 18.3237 27.3144 17.985 26.8927 17.7653C26.4639 17.5376 25.9596 17.4238 25.3798 17.4238C24.757 17.4238 24.213 17.5686 23.748 17.8581C23.2886 18.1415 22.912 18.5409 22.6559 19.016C22.4015 19.4985 22.2743 20.0375 22.2743 20.6329C22.2743 21.3001 22.4147 21.8836 22.6955 22.3833C22.9696 22.868 23.3757 23.2651 23.8665 23.5282C24.3678 23.7928 24.9385 23.925 25.5788 23.925C26.3331 23.925 26.9515 23.7496 27.434 23.3988C27.9255 23.0477 28.2719 22.574 28.4734 21.9775L27.0525 21.4228ZM24.4705 19.0553C24.7323 18.871 25.0455 18.774 25.3656 18.7781C25.5913 18.7725 25.8157 18.8155 26.0235 18.904C26.2035 18.9699 26.3594 19.0886 26.4708 19.2447C26.5892 19.396 26.6541 19.5823 26.6552 19.7744C26.6543 19.796 26.6497 19.8174 26.6417 19.8375H23.9693C24.0571 19.4938 24.2076 19.2331 24.4705 19.0564V19.0553Z" fill="black" />
    <path d="M18.498 23.793L20.4636 16.0723H22.2398L20.2745 23.793H18.498Z" fill="black" />
    <path d="M6.17666 17.5566L7.87395 22.2L9.66169 17.5566H11.4383L8.90064 23.793H6.86035L4.40006 17.5566H6.17666Z" fill="black" />
</svg>