<svg width="13" height="13" viewBox="0 0 13 13" fill="none" xmlns="http://www.w3.org/2000/svg">
    <path fill-rule="evenodd" clip-rule="evenodd" d="M6.5 13C10.0899 13 13 10.0899 13 6.5C13 2.91015 10.0899 0 6.5 0C2.91015 0 0 2.91015 0 6.5C0 10.0899 2.91015 13 6.5 13ZM6.49992 7.63669C6.76642 7.63669 6.98742 7.41569 6.98742 7.14919V3.89919C6.98742 3.63269 6.76642 3.41169 6.49992 3.41169C6.23342 3.41169 6.01242 3.63269 6.01242 3.89919V7.14919C6.01242 7.41569 6.23342 7.63669 6.49992 7.63669ZM6.96149 8.63789C7.01999 8.70289 7.06549 8.77439 7.09799 8.85239C7.13049 8.93039 7.14999 9.01489 7.14999 9.09939C7.14999 9.18389 7.13049 9.26839 7.09799 9.34639C7.06549 9.43089 7.01999 9.49589 6.96149 9.56089C6.89649 9.61939 6.82499 9.66489 6.74699 9.69739C6.66899 9.72989 6.58449 9.74939 6.49999 9.74939C6.41549 9.74939 6.33099 9.72989 6.25299 9.69739C6.17499 9.66489 6.10349 9.61939 6.03849 9.56089C5.97999 9.49589 5.93449 9.43089 5.90199 9.34639C5.86949 9.26839 5.84999 9.18389 5.84999 9.09939C5.84999 9.01489 5.86949 8.93039 5.90199 8.85239C5.93449 8.77439 5.97999 8.70289 6.03849 8.63789C6.10349 8.57939 6.17499 8.53389 6.25299 8.50139C6.40899 8.43639 6.59099 8.43639 6.74699 8.50139C6.82499 8.53389 6.89649 8.57939 6.96149 8.63789Z" fill="#212529" />
</svg>